<?xml version="1.0" encoding="UTF-8"?>
<!DOCTYPE svg PUBLIC "-//W3C//DTD SVG 1.1//EN" "http://www.w3.org/Graphics/SVG/1.1/DTD/svg11.dtd">
<svg xmlns="http://www.w3.org/2000/svg" version="1.1" width="128px" height="128px" style="shape-rendering:geometricPrecision; text-rendering:geometricPrecision; image-rendering:optimizeQuality; fill-rule:evenodd; clip-rule:evenodd" xmlns:xlink="http://www.w3.org/1999/xlink">
<g><path style="opacity:0.995" fill="#aababd" d="M 8.5,-0.5 C 45.1667,-0.5 81.8333,-0.5 118.5,-0.5C 119.987,0.803551 121.654,1.97022 123.5,3C 124.697,5.01533 126.03,6.84866 127.5,8.5C 127.5,45.1667 127.5,81.8333 127.5,118.5C 126.196,119.987 125.03,121.654 124,123.5C 121.985,124.697 120.151,126.03 118.5,127.5C 81.8333,127.5 45.1667,127.5 8.5,127.5C 7.01307,126.196 5.3464,125.03 3.5,124C 2.30342,121.985 0.970083,120.151 -0.5,118.5C -0.5,81.8333 -0.5,45.1667 -0.5,8.5C 0.803551,7.01307 1.97022,5.3464 3,3.5C 5.01533,2.30342 6.84866,0.970083 8.5,-0.5 Z"/></g>
<g><path style="opacity:1" fill="#050707" d="M 80.5,45.5 C 82.1172,46.038 83.7839,46.3713 85.5,46.5C 85.5,45.5 85.5,44.5 85.5,43.5C 83.7085,43.366 82.0418,43.6993 80.5,44.5C 79.8592,43.5178 79.1925,42.5178 78.5,41.5C 79.4279,40.2322 79.5946,38.8989 79,37.5C 74.9687,35.7341 74.4687,33.2341 77.5,30C 75.9712,28.418 75.4712,26.5847 76,24.5C 77.0113,23.6634 78.1779,23.33 79.5,23.5C 78.0936,18.0687 80.0936,15.7353 85.5,16.5C 85.2411,11.3805 87.0745,10.3805 91,13.5C 93.8355,9.5825 96.6689,9.5825 99.5,13.5C 103.584,10.3064 105.584,11.3064 105.5,16.5C 107.199,16.3398 108.866,16.5065 110.5,17C 111.113,19.1474 111.779,21.314 112.5,23.5C 116.29,25.6621 116.29,27.9954 112.5,30.5C 116.697,33.7536 116.197,36.0869 111,37.5C 112.61,42.3959 110.777,44.3959 105.5,43.5C 106.025,48.1455 104.191,49.4789 100,47.5C 98.503,48.4773 97.003,49.4773 95.5,50.5C 93.6195,50.0748 92.1195,49.0748 91,47.5C 89.5272,47.9031 88.1939,48.5697 87,49.5C 86.3096,52.5256 85.1429,55.359 83.5,58C 83.6448,58.772 83.9781,59.4387 84.5,60C 90.0868,59.4215 93.0868,61.9215 93.5,67.5C 91.1478,69.6709 88.8145,71.8375 86.5,74C 88.0562,76.0515 90.0562,77.5515 92.5,78.5C 93.4928,81.2382 93.1594,83.9049 91.5,86.5C 83.0803,86.2819 81.4136,89.4486 86.5,96C 85.9169,98.4993 84.5836,100.499 82.5,102C 79.5617,101.554 76.5617,101.054 73.5,100.5C 75.2384,106.868 73.0718,110.868 67,112.5C 65.2163,110.633 63.2163,108.966 61,107.5C 59.7387,107.759 58.7387,108.426 58,109.5C 57.1553,115.288 53.9886,116.955 48.5,114.5C 47.846,112.885 47.346,111.218 47,109.5C 46.2613,108.426 45.2613,107.759 44,107.5C 41.7837,108.966 39.7837,110.633 38,112.5C 31.9282,110.868 29.7616,106.868 31.5,100.5C 28.404,100.935 25.404,101.435 22.5,102C 20.4164,100.499 19.0831,98.4993 18.5,96C 23.5864,89.4486 21.9197,86.2819 13.5,86.5C 12.6339,84.5683 11.9672,82.5683 11.5,80.5C 13.9932,78.5874 15.9932,76.2541 17.5,73.5C 15.5,71.5 13.5,69.5 11.5,67.5C 11.7402,61.8145 14.7402,59.3145 20.5,60C 21.0219,59.4387 21.3552,58.772 21.5,58C 20.0128,55.5886 19.1794,53.0886 19,50.5C 20.0128,48.1539 21.6794,46.4872 24,45.5C 26.3187,46.8713 28.8187,47.5379 31.5,47.5C 29.7616,41.1318 31.9282,37.1318 38,35.5C 39.7837,37.3673 41.7837,39.0339 44,40.5C 44.772,40.3552 45.4387,40.0219 46,39.5C 47.236,33.7803 50.736,31.947 56.5,34C 57.717,35.6477 58.5503,37.481 59,39.5C 59.5613,40.0219 60.228,40.3552 61,40.5C 63.2163,39.0339 65.2163,37.3673 67,35.5C 73.0718,37.1318 75.2384,41.1318 73.5,47.5C 76.0786,47.6061 78.412,46.9395 80.5,45.5 Z"/></g>
<g><path style="opacity:1" fill="#a6b7ba" d="M 90.5,17.5 C 104.476,16.6361 109.976,22.9694 107,36.5C 98.5919,45.9876 90.5919,45.6543 83,35.5C 80.8986,27.3892 83.3986,21.3892 90.5,17.5 Z"/></g>
<g><path style="opacity:1" fill="#435356" d="M 80.5,45.5 C 80.5,45.1667 80.5,44.8333 80.5,44.5C 82.0418,43.6993 83.7085,43.366 85.5,43.5C 85.5,44.5 85.5,45.5 85.5,46.5C 83.7839,46.3713 82.1172,46.038 80.5,45.5 Z"/></g>
<g><path style="opacity:1" fill="#a9babd" d="M 47.5,47.5 C 62.1833,46.699 72.35,53.0323 78,66.5C 80.7493,83.0778 74.2493,94.2444 58.5,100C 42.6588,102.001 32.1588,95.5012 27,80.5C 24.7017,63.7536 31.535,52.7536 47.5,47.5 Z"/></g>
</svg>
